# xmcd
#
# Track frame offsets: 
#        150
#        32721
#        62963
#        78080
#        114328
#        149948
#        175680
#        206694
#        239980
#        267405
#        289278
#        301745
#        307630
#        321420
#        335883
#
# Disc length: 4643 seconds
#
# Revision: 0
# Processed by: cddbd v1.5.2PL0 Copyright (c) Steve Scherf et al.
# Submitted via: ExactAudioCopy v0.99pb4
#
DISCID=e812210f
DTITLE=ZIEBOLZ, Burkhard - Riesen and Zwerge (Krimi-7 CD-107 Tracks)
DYEAR=2006
DGENRE=Hörbuch
TTITLE0=030 Riesen and Zwerge-CD 3-01
TTITLE1=031 Riesen and Zwerge-CD 3-02
TTITLE2=032 Riesen and Zwerge-CD 3-03
TTITLE3=033 Riesen and Zwerge-CD 3-04
TTITLE4=034 Riesen and Zwerge-CD 3-05
TTITLE5=035 Riesen and Zwerge-CD 3-06
TTITLE6=036 Riesen and Zwerge-CD 3-07
TTITLE7=037 Riesen and Zwerge-CD 3-08
TTITLE8=038 Riesen and Zwerge-CD 3-09
TTITLE9=039 Riesen and Zwerge-CD 3-10
TTITLE10=040 Riesen and Zwerge-CD 3-11
TTITLE11=041 Riesen and Zwerge-CD 3-12
TTITLE12=042 Riesen and Zwerge-CD 3-13
TTITLE13=043 Riesen and Zwerge-CD 3-14
TTITLE14=044 Riesen and Zwerge-CD 3-15
EXTD=
EXTT0=
EXTT1=
EXTT2=
EXTT3=
EXTT4=
EXTT5=
EXTT6=
EXTT7=
EXTT8=
EXTT9=
EXTT10=
EXTT11=
EXTT12=
EXTT13=
EXTT14=
PLAYORDER=
